#!OML:ASF I:\Random Stuff\random\construction\7_22_03\Session 2\subj1.ASF
:FULLY-SPECIFIED
:DEGREES
744
root 3.82156 17.7394 -7.55515 19.7312 -28.8875 -4.01526
lowerback 11.4319 0.0803175 1.73905
upperback 3.76433 0.266265 0.352269
thorax -2.47136 0.11557 -0.648637
lowerneck -22.2181 -0.655621 -3.77049
upperneck 42.319 -1.02946 2.57669
head 20.5928 -0.799229 1.69937
rclavicle 3.4191e-014 5.86415e-014
rhumerus 47.789 55.6766 -16.9527
rradius 61.9509
rwrist 36.5059
rhand -51.9865 262.239
rfingers 7.12502
rthumb -24.4946 69.3078
lclavicle 3.4191e-014 5.86415e-014
lhumerus -23.2788 -68.1369 108.442
lradius 79.6156
lwrist 68.4996
lhand -27.9479 73.0631
lfingers 7.12502
lthumb -1.33558 -463.039
rfemur -24.7541 2.66821 19.559
rtibia 13.7862
rfoot -4.98148 -5.23074
rtoes -11.5784
lfemur -25.4188 -2.9919 -9.68756
ltibia 26.2184
lfoot -16.1688 11.3746
ltoes -32.9311
745
root 3.81675 17.7391 -7.55713 19.7867 -28.8509 -4.06355
lowerback 11.4405 0.104403 1.77467
upperback 3.75853 0.302317 0.354898
thorax -2.481 0.133382 -0.670798
lowerneck -22.3354 -0.599171 -3.95401
upperneck 42.4676 -0.924163 2.73544
head 20.7274 -0.770965 1.84352
rclavicle -9.74045e-015 -5.96354e-015
rhumerus 47.7744 55.6732 -17.0291
rradius 61.9814
rwrist 36.5886
rhand -51.8941 262.726
rfingers 7.12502
rthumb -24.406 68.8084
lclavicle -9.74045e-015 -5.96354e-015
lhumerus -23.4343 -68.1585 108.587
lradius 79.6944
lwrist 68.6106
lhand -28.1383 73.643
lfingers 7.12502
lthumb -1.51951 -463.617
rfemur -24.7501 2.6107 19.6495
rtibia 13.7228
rfoot -4.95671 -5.18014
rtoes -11.7266
lfemur -25.4578 -3.01609 -9.60648
ltibia 26.2241
lfoot -16.2226 11.3838
ltoes -32.6739
746
root 3.81098 17.7402 -7.55872 19.8413 -28.8206 -4.09097
lowerback 11.4166 0.148216 1.82703
upperback 3.75834 0.364047 0.314233
thorax -2.4659 0.16437 -0.750555
lowerneck -22.2257 -0.694425 -3.66242
upperneck 42.3522 -1.05595 2.40221
head 20.6169 -0.814996 1.58569
rclavicle 1.17283e-014 1.5704e-014
rhumerus 47.5866 55.6931 -17.0687
rradius 62.1333
rwrist 36.4334
rhand -51.804 263.151
rfingers 7.12502
rthumb -24.3196 68.3721
lclavicle 1.17283e-014 1.5704e-014
lhumerus -23.5513 -68.2667 108.657
lradius 79.7251
lwrist 68.5533
lhand -28.0007 73.6888
lfingers 7.12502
lthumb -1.38659 -463.664
rfemur -24.7806 2.59021 19.705
rtibia 13.709
rfoot -4.98412 -5.16987
rtoes -11.5432
lfemur -25.5009 -3.03212 -9.55109
ltibia 26.2155
lfoot -16.1765 11.4243
ltoes -32.8412
747
root 3.80437 17.741 -7.56088 19.9035 -28.7763 -4.09303
lowerback 11.3844 0.211478 1.83658
upperback 3.74831 0.447163 0.284264
thorax -2.45624 0.205811 -0.797871
lowerneck -22.2133 -0.75727 -3.76372
upperneck 42.3473 -1.15611 2.51313
head 20.6183 -0.852439 1.63791
rclavicle -1.17283e-014 3.77691e-015
rhumerus 47.589 55.8126 -16.5395
rradius 62.5904
rwrist 35.7514
rhand -51.6776 263.781
rfingers 7.12502
rthumb -24.1984 67.7253
lclavicle -1.17283e-014 3.77691e-015
lhumerus -23.6183 -68.3995 108.711
lradius 79.7074
lwrist 68.3418
lhand -27.51 73.2322
lfingers 7.12502
lthumb -0.912654 -463.21
rfemur -24.8637 2.59833 19.7248
rtibia 13.7542
rfoot -5.01703 -5.20357
rtoes -11.2516
lfemur -25.5664 -3.04328 -9.51292
ltibia 26.1808
lfoot -16.0442 11.4829
ltoes -33.2573
748
root 3.79676 17.7419 -7.56358 19.9178 -28.7286 -4.08366
lowerback 11.4449 0.283669 1.83166
upperback 3.70982 0.543017 0.254619
thorax -2.52651 0.252668 -0.839173
lowerneck -22.1496 -0.848513 -3.81384
upperneck 42.3447 -1.30942 2.58182
head 20.6083 -0.907557 1.64668
rclavicle -1.61016e-014 2.48481e-014
rhumerus 46.8834 55.8876 -16.8513
rradius 62.9446
rwrist 35.4139
rhand -51.6954 264.689
rfingers 7.12502
rthumb -24.2155 66.8204
lclavicle -1.61016e-014 2.48481e-014
lhumerus -23.9019 -68.513 109.015
lradius 79.6701
lwrist 68.2198
lhand -27.2567 73.1936
lfingers 7.12502
lthumb -0.667979 -463.172
rfemur -24.8961 2.63725 19.726
rtibia 13.8152
rfoot -5.05441 -5.27221
rtoes -10.6171
lfemur -25.5783 -3.0374 -9.48865
ltibia 26.1299
lfoot -15.9718 11.4601
ltoes -33.4229
749
root 3.78947 17.7453 -7.56511 19.8979 -28.6475 -4.05895
lowerback 11.5347 0.324269 1.83319
upperback 3.6565 0.599134 0.231006
thorax -2.62921 0.279483 -0.8731
lowerneck -22.1005 -0.793257 -3.9808
upperneck 42.3774 -1.21323 2.73466
head 20.6141 -0.877799 1.77849
rclavicle 4.39314e-014 -1.47101e-014
rhumerus 45.9445 55.947 -17.5393
rradius 63.1612
rwrist 35.383
rhand -51.8412 265.708
rfingers 7.12502
rthumb -24.3553 65.8191
lclavicle 4.39314e-014 -1.47101e-014
lhumerus -24.2153 -68.5465 109.396
lradius 79.6285
lwrist 68.1511
lhand -27.1462 73.1181
lfingers 7.12502
lthumb -0.561277 -463.097
rfemur -24.8916 2.65397 19.7186
rtibia 13.8907
rfoot -5.13583 -5.35264
rtoes -9.71954
lfemur -25.5564 -3.05085 -9.47503
ltibia 26.0612
lfoot -15.908 11.365
ltoes -33.629
750
root 3.78412 17.7481 -7.56587 19.8878 -28.5282 -4.03323
lowerback 11.5676 0.32635 1.8371
upperback 3.6238 0.604158 0.236459
thorax -2.68113 0.281475 -0.87079
lowerneck -22.0869 -0.822958 -3.9673
upperneck 42.4412 -1.23989 2.67273
head 20.6552 -0.895347 1.73985
rclavicle 3.18055e-014 2.78299e-015
rhumerus 46.1095 56.1644 -16.8086
rradius 63.7011
rwrist 34.7282
rhand -51.9441 266.733
rfingers 7.12502
rthumb -24.4539 64.8083
lclavicle 3.18055e-014 2.78299e-015
lhumerus -24.3193 -68.5161 109.607
lradius 79.5472
lwrist 68.0671
lhand -26.9511 72.8184
lfingers 7.12502
lthumb -0.372897 -462.798
rfemur -24.923 2.61473 19.7293
rtibia 13.992
rfoot -5.19271 -5.43199
rtoes -9.62748
lfemur -25.5484 -3.13755 -9.44352
ltibia 25.9804
lfoot -15.858 11.3018
ltoes -33.5278
751
root 3.78044 17.7511 -7.56658 19.8448 -28.4175 -3.96031
lowerback 11.5899 0.317772 1.80074
upperback 3.61115 0.589972 0.24406
thorax -2.70737 0.274232 -0.840762
lowerneck -22.098 -0.844161 -3.98745
upperneck 42.4935 -1.2475 2.63658
head 20.6954 -0.907398 1.72472
rclavicle 3.47873e-015 -1.47101e-014
rhumerus 46.2907 56.313 -16.2069
rradius 64.1541
rwrist 34.207
rhand -51.979 267.31
rfingers 7.12502
rthumb -24.4874 64.2354
lclavicle 3.47873e-015 -1.47101e-014
lhumerus -24.4007 -68.4536 109.805
lradius 79.4415
lwrist 68.019
lhand -26.8849 72.8471
lfingers 7.12502
lthumb -0.3089 -462.827
rfemur -24.9517 2.55469 19.6959
rtibia 14.0831
rfoot -5.20184 -5.49263
rtoes -9.98662
lfemur -25.5299 -3.30029 -9.454
ltibia 25.8989
lfoot -15.8688 11.3078
ltoes -33.0664
752
root 3.77698 17.754 -7.56782 19.7962 -28.328 -3.87444
lowerback 11.6128 0.319969 1.77105
upperback 3.59457 0.589903 0.225264
thorax -2.73733 0.274023 -0.843847
lowerneck -22.0003 -0.856857 -3.87404
upperneck 42.365 -1.21403 2.4174
head 20.5713 -0.903034 1.59635
rclavicle -7.92157e-014 -5.96354e-015
rhumerus 45.9217 56.3468 -16.3719
rradius 64.5404
rwrist 34.0685
rhand -51.776 268.016
rfingers 7.12502
rthumb -24.2928 63.5034
lclavicle -7.92157e-014 -5.96354e-015
lhumerus -24.6284 -68.4404 110.067
lradius 79.468
lwrist 68.1798
lhand -27.2435 73.2304
lfingers 7.12502
lthumb -0.655227 -463.209
rfemur -24.9594 2.49767 19.6449
rtibia 14.1376
rfoot -5.18049 -5.513
rtoes -10.3694
lfemur -25.5155 -3.41483 -9.4941
ltibia 25.8243
lfoot -15.8936 11.2809
ltoes -32.6459
753
root 3.77343 17.7561 -7.56999 19.7905 -28.2525 -3.85114
lowerback 11.6279 0.32807 1.79224
upperback 3.56867 0.603147 0.19972
thorax -2.77161 0.280345 -0.8844
lowerneck -21.9816 -0.839409 -3.78146
upperneck 42.3518 -1.20103 2.35973
head 20.554 -0.890051 1.55295
rclavicle -5.03919e-014 7.15625e-015
rhumerus 45.5455 56.3612 -16.5201
rradius 65.1068
rwrist 33.9042
rhand -51.4352 269.178
rfingers 7.12502
rthumb -23.966 62.2981
lclavicle -5.03919e-014 7.15625e-015
lhumerus -24.8778 -68.4419 110.253
lradius 79.5747
lwrist 68.3086
lhand -27.5744 73.4452
lfingers 7.12502
lthumb -0.974871 -463.423
rfemur -24.9863 2.46389 19.6495
rtibia 14.1805
rfoot -5.13534 -5.50907
rtoes -10.6995
lfemur -25.5184 -3.43609 -9.48948
ltibia 25.758
lfoot -15.8572 11.2398
ltoes -32.5898
754
root 3.77031 17.7601 -7.57189 19.8106 -28.1743 -3.85884
lowerback 11.6223 0.309077 1.81511
upperback 3.54773 0.581451 0.205224
thorax -2.79078 0.269444 -0.888664
lowerneck -22.0189 -0.78241 -3.75123
upperneck 42.3732 -1.12482 2.36443
head 20.5748 -0.855993 1.56818
rclavicle -4.54223e-014 2.10712e-014
rhumerus 45.4989 56.3832 -16.4252
rradius 65.4751
rwrist 33.732
rhand -51.2449 89.9709
rfingers 7.12502
rthumb -23.7834 61.4229
lclavicle -4.54223e-014 2.10712e-014
lhumerus -24.8925 -68.3159 110.235
lradius 79.6046
lwrist 68.2941
lhand -27.6098 73.3387
lfingers 7.12502
lthumb -1.00904 -463.316
rfemur -25.0322 2.48879 19.6585
rtibia 14.2258
rfoot -5.132 -5.55125
rtoes -10.3039
lfemur -25.5382 -3.45679 -9.45672
ltibia 25.7018
lfoot -15.7556 11.2619
ltoes -32.9285
755
root 3.76816 17.7616 -7.57322 19.8175 -28.1036 -3.85626
lowerback 11.6269 0.284836 1.83522
upperback 3.52525 0.553211 0.223766
thorax -2.81747 0.255178 -0.877013
lowerneck -22.1017 -0.709599 -3.78543
upperneck 42.4447 -1.02735 2.4416
head 20.6442 -0.815695 1.63854
rclavicle -2.82274e-014 -1.37161e-014
rhumerus 45.5599 56.4369 -16.3027
rradius 65.5645
rwrist 33.5618
rhand -51.1297 89.5041
rfingers 7.12502
rthumb -23.673 60.9417
lclavicle -2.82274e-014 -1.37161e-014
lhumerus -24.819 -68.1578 110.206
lradius 79.5665
lwrist 68.3097
lhand -27.6519 73.2311
lfingers 7.12502
lthumb -1.04973 -463.208
rfemur -25.0621 2.54503 19.6399
rtibia 14.265
rfoot -5.12917 -5.65943
rtoes -9.88754
lfemur -25.545 -3.49042 -9.43501
ltibia 25.6542
lfoot -15.7074 11.2632
ltoes -32.9508
756
root 3.76714 17.7611 -7.57437 19.7902 -28.0522 -3.84643
lowerback 11.662 0.292646 1.88117
upperback 3.5118 0.56992 0.226814
thorax -2.8497 0.263051 -0.902388
lowerneck -22.2609 -0.644104 -3.90207
upperneck 42.6354 -0.995272 2.71367
head 20.8265 -0.789031 1.81323
rclavicle 2.29596e-014 -8.15017e-015
rhumerus 45.207 56.4255 -16.6617
rradius 65.4281
rwrist 33.4939
rhand -50.9375 89.3839
rfingers 7.12502
rthumb -23.4887 60.7978
lclavicle 2.29596e-014 -8.15017e-015
lhumerus -24.8231 -68.0949 110.275
lradius 79.5231
lwrist 68.2401
lhand -27.5347 72.9808
lfingers 7.12502
lthumb -0.936489 -462.958
rfemur -25.0656 2.5434 19.6381
rtibia 14.332
rfoot -5.09437 -5.73098
rtoes -9.90512
lfemur -25.5084 -3.4888 -9.43454
ltibia 25.6007
lfoot -15.6787 11.1925
ltoes -32.8685
757
root 3.76691 17.7624 -7.57581 19.754 -27.9875 -3.81486
lowerback 11.6759 0.320465 1.93162
upperback 3.51762 0.612006 0.212291
thorax -2.84922 0.283874 -0.951791
lowerneck -22.2923 -0.729586 -3.74408
upperneck 42.6108 -1.15182 2.60574
head 20.826 -0.83425 1.69226
rclavicle 8.74653e-014 9.34288e-015
rhumerus 44.8326 56.376 -16.9804
rradius 65.1897
rwrist 33.3132
rhand -50.7239 89.6969
rfingers 7.12502
rthumb -23.2838 61.0847
lclavicle 8.74653e-014 9.34288e-015
lhumerus -24.7859 -68.1443 110.312
lradius 79.4991
lwrist 68.1696
lhand -27.3264 72.635
lfingers 7.12502
lthumb -0.735343 -462.614
rfemur -25.0822 2.48069 19.6348
rtibia 14.4294
rfoot -5.10401 -5.75683
rtoes -9.75295
lfemur -25.4872 -3.45803 -9.46471
ltibia 25.5517
lfoot -15.6375 11.0946
ltoes -33.016
758
root 3.76636 17.7619 -7.57758 19.6957 -27.9276 -3.74888
lowerback 11.6961 0.37133 1.9342
upperback 3.51176 0.678948 0.18388
thorax -2.86393 0.31691 -0.992251
lowerneck -22.2691 -0.775447 -3.72621
upperneck 42.516 -1.21006 2.57388
head 20.7558 -0.853648 1.65713
rclavicle -1.799e-014 -4.4329e-014
rhumerus 45.0462 56.4883 -16.4471
rradius 65.1415
rwrist 32.6302
rhand -50.706 -90.0561
rfingers 7.12502
rthumb -23.2666 61.4418
lclavicle -1.799e-014 -4.4329e-014
lhumerus -24.8155 -68.2853 110.438
lradius 79.4756
lwrist 68.1845
lhand -27.1602 72.1294
lfingers 7.12502
lthumb -0.574816 -462.108
rfemur -25.0942 2.44073 19.5828
rtibia 14.5243
rfoot -5.1558 -5.7928
rtoes -9.5913
lfemur -25.4574 -3.47361 -9.52039
ltibia 25.5134
lfoot -15.6372 11.052
ltoes -32.9511
